<?xml version="1.0" encoding="UTF-8"?>
<!DOCTYPE svg PUBLIC "-//W3C//DTD SVG 1.1//EN" "http://www.w3.org/Graphics/SVG/1.1/DTD/svg11.dtd">
<svg version="1.2" width="21.6mm" height="21.6mm" viewBox="12810 11414 2160 2160" preserveAspectRatio="xMidYMid" fill-rule="evenodd" stroke-width="28.222" stroke-linejoin="round" xmlns="http://www.w3.org/2000/svg" xmlns:ooo="http://xml.openoffice.org/svg/export" xmlns:xlink="http://www.w3.org/1999/xlink" xmlns:presentation="http://sun.com/xmlns/staroffice/presentation" xmlns:smil="http://www.w3.org/2001/SMIL20/" xmlns:anim="urn:oasis:names:tc:opendocument:xmlns:animation:1.0" xml:space="preserve">
 <defs class="ClipPathGroup">
  <clipPath id="presentation_clip_path" clipPathUnits="userSpaceOnUse">
   <rect x="12810" y="11414" width="2160" height="2160"/>
  </clipPath>
 </defs>
 <defs class="TextShapeIndex">
  <g ooo:slide="id1" ooo:id-list="id3"/>
 </defs>
 <defs class="EmbeddedBulletChars">
  <g id="bullet-char-template(57356)" transform="scale(0.00048828125,-0.00048828125)">
   <path d="M 580,1141 L 1163,571 580,0 -4,571 580,1141 Z"/>
  </g>
  <g id="bullet-char-template(57354)" transform="scale(0.00048828125,-0.00048828125)">
   <path d="M 8,1128 L 1137,1128 1137,0 8,0 8,1128 Z"/>
  </g>
  <g id="bullet-char-template(10146)" transform="scale(0.00048828125,-0.00048828125)">
   <path d="M 174,0 L 602,739 174,1481 1456,739 174,0 Z M 1358,739 L 309,1346 659,739 1358,739 Z"/>
  </g>
  <g id="bullet-char-template(10132)" transform="scale(0.00048828125,-0.00048828125)">
   <path d="M 2015,739 L 1276,0 717,0 1260,543 174,543 174,936 1260,936 717,1481 1274,1481 2015,739 Z"/>
  </g>
  <g id="bullet-char-template(10007)" transform="scale(0.00048828125,-0.00048828125)">
   <path d="M 0,-2 C -7,14 -16,27 -25,37 L 356,567 C 262,823 215,952 215,954 215,979 228,992 255,992 264,992 276,990 289,987 310,991 331,999 354,1012 L 381,999 492,748 772,1049 836,1024 860,1049 C 881,1039 901,1025 922,1006 886,937 835,863 770,784 769,783 710,716 594,584 L 774,223 C 774,196 753,168 711,139 L 727,119 C 717,90 699,76 672,76 641,76 570,178 457,381 L 164,-76 C 142,-110 111,-127 72,-127 30,-127 9,-110 8,-76 1,-67 -2,-52 -2,-32 -2,-23 -1,-13 0,-2 Z"/>
  </g>
  <g id="bullet-char-template(10004)" transform="scale(0.00048828125,-0.00048828125)">
   <path d="M 285,-33 C 182,-33 111,30 74,156 52,228 41,333 41,471 41,549 55,616 82,672 116,743 169,778 240,778 293,778 328,747 346,684 L 369,508 C 377,444 397,411 428,410 L 1163,1116 C 1174,1127 1196,1133 1229,1133 1271,1133 1292,1118 1292,1087 L 1292,965 C 1292,929 1282,901 1262,881 L 442,47 C 390,-6 338,-33 285,-33 Z"/>
  </g>
  <g id="bullet-char-template(9679)" transform="scale(0.00048828125,-0.00048828125)">
   <path d="M 813,0 C 632,0 489,54 383,161 276,268 223,411 223,592 223,773 276,916 383,1023 489,1130 632,1184 813,1184 992,1184 1136,1130 1245,1023 1353,916 1407,772 1407,592 1407,412 1353,268 1245,161 1136,54 992,0 813,0 Z"/>
  </g>
  <g id="bullet-char-template(8226)" transform="scale(0.00048828125,-0.00048828125)">
   <path d="M 346,457 C 273,457 209,483 155,535 101,586 74,649 74,723 74,796 101,859 155,911 209,963 273,989 346,989 419,989 480,963 531,910 582,859 608,796 608,723 608,648 583,586 532,535 482,483 420,457 346,457 Z"/>
  </g>
  <g id="bullet-char-template(8211)" transform="scale(0.00048828125,-0.00048828125)">
   <path d="M -4,459 L 1135,459 1135,606 -4,606 -4,459 Z"/>
  </g>
 </defs>
 <defs class="TextEmbeddedBitmaps"/>
 <g class="SlideGroup">
  <g>
   <g id="id1" class="Slide" clip-path="url(#presentation_clip_path)">
    <g class="Page">
     <g class="Graphic">
      <g id="id3">
       <rect class="BoundingBox" stroke="none" fill="none" x="12810" y="11414" width="2161" height="2161"/>
       <path fill="rgb(0,0,0)" stroke="none" d="M 13890,11436 L 13890,11436 13890,11436 C 13695,11436 13530,11452 13361,11489 13193,11526 13071,11571 12973,11635 12877,11698 12832,11760 12832,11833 L 12832,13155 12832,13155 C 12832,13228 12877,13290 12973,13353 13071,13417 13193,13462 13361,13499 13530,13536 13695,13552 13890,13552 L 13890,13552 13890,13552 13890,13552 C 14085,13552 14250,13536 14419,13499 14587,13462 14709,13417 14807,13353 14903,13290 14948,13228 14948,13155 L 14948,11833 C 14948,11760 14903,11698 14807,11635 14709,11571 14587,11526 14419,11489 14250,11452 14085,11436 13890,11436 L 13890,11436 13890,11436 13890,11436 Z M 13890,11568 L 13890,11568 C 14060,11568 14205,11580 14353,11604 14500,11628 14607,11658 14692,11700 14777,11743 14816,11784 14816,11833 L 14816,11833 C 14816,11881 14777,11923 14692,11965 14607,12007 14500,12038 14353,12062 14205,12086 14060,12098 13890,12098 13720,12098 13575,12086 13427,12062 13280,12038 13173,12007 13088,11965 13003,11923 12964,11881 12964,11833 12964,11784 13003,11743 13088,11700 13173,11658 13280,11628 13427,11604 13575,11580 13720,11568 13890,11568 L 13890,11568 13890,11568 13890,11568 Z M 14816,12024 L 14816,12494 C 14816,12542 14777,12583 14692,12626 14607,12668 14500,12699 14353,12723 14205,12747 14060,12758 13890,12758 13720,12758 13575,12747 13427,12723 13280,12699 13173,12668 13088,12626 13003,12583 12964,12542 12964,12494 L 12964,12025 12964,12025 C 12968,12027 12971,12029 12974,12031 13072,12094 13193,12140 13362,12176 13530,12213 13696,12230 13890,12230 L 13890,12230 C 14084,12230 14250,12213 14418,12176 14586,12140 14708,12094 14805,12031 14809,12028 14812,12026 14816,12024 L 14816,12024 14816,12024 14816,12024 Z M 14816,12685 L 14816,13155 C 14816,13204 14777,13245 14692,13288 14607,13330 14500,13360 14353,13384 14205,13408 14060,13420 13890,13420 13720,13420 13575,13408 13427,13384 13280,13360 13173,13330 13088,13288 13003,13245 12964,13204 12964,13155 L 12964,12686 12964,12686 C 12968,12688 12971,12689 12974,12692 13072,12755 13193,12800 13362,12837 13530,12874 13696,12890 13890,12890 L 13890,12890 C 14084,12890 14250,12874 14418,12837 14586,12800 14708,12755 14805,12692 14809,12689 14812,12687 14816,12685 L 14816,12685 14816,12685 14816,12685 Z"/>
      </g>
     </g>
    </g>
   </g>
  </g>
 </g>
</svg>