<?xml version="1.0" encoding="UTF-8"?>
<!DOCTYPE svg PUBLIC "-//W3C//DTD SVG 1.1//EN" "http://www.w3.org/Graphics/SVG/1.1/DTD/svg11.dtd">
<svg version="1.2" width="21.65mm" height="21.3mm" viewBox="1609 1309 2165 2130" preserveAspectRatio="xMidYMid" fill-rule="evenodd" stroke-width="28.222" stroke-linejoin="round" xmlns="http://www.w3.org/2000/svg" xmlns:ooo="http://xml.openoffice.org/svg/export" xmlns:xlink="http://www.w3.org/1999/xlink" xmlns:presentation="http://sun.com/xmlns/staroffice/presentation" xmlns:smil="http://www.w3.org/2001/SMIL20/" xmlns:anim="urn:oasis:names:tc:opendocument:xmlns:animation:1.0" xml:space="preserve">
 <defs class="ClipPathGroup">
  <clipPath id="presentation_clip_path" clipPathUnits="userSpaceOnUse">
   <rect x="1609" y="1309" width="2165" height="2130"/>
  </clipPath>
 </defs>
 <defs class="TextShapeIndex">
  <g ooo:slide="id1" ooo:id-list="id3 id4 id5 id6 id7 id8 id9 id10 id11 id12 id13 id14 id15 id16 id17 id18 id19 id20"/>
 </defs>
 <defs class="EmbeddedBulletChars">
  <g id="bullet-char-template(57356)" transform="scale(0.00048828125,-0.00048828125)">
   <path d="M 580,1141 L 1163,571 580,0 -4,571 580,1141 Z"/>
  </g>
  <g id="bullet-char-template(57354)" transform="scale(0.00048828125,-0.00048828125)">
   <path d="M 8,1128 L 1137,1128 1137,0 8,0 8,1128 Z"/>
  </g>
  <g id="bullet-char-template(10146)" transform="scale(0.00048828125,-0.00048828125)">
   <path d="M 174,0 L 602,739 174,1481 1456,739 174,0 Z M 1358,739 L 309,1346 659,739 1358,739 Z"/>
  </g>
  <g id="bullet-char-template(10132)" transform="scale(0.00048828125,-0.00048828125)">
   <path d="M 2015,739 L 1276,0 717,0 1260,543 174,543 174,936 1260,936 717,1481 1274,1481 2015,739 Z"/>
  </g>
  <g id="bullet-char-template(10007)" transform="scale(0.00048828125,-0.00048828125)">
   <path d="M 0,-2 C -7,14 -16,27 -25,37 L 356,567 C 262,823 215,952 215,954 215,979 228,992 255,992 264,992 276,990 289,987 310,991 331,999 354,1012 L 381,999 492,748 772,1049 836,1024 860,1049 C 881,1039 901,1025 922,1006 886,937 835,863 770,784 769,783 710,716 594,584 L 774,223 C 774,196 753,168 711,139 L 727,119 C 717,90 699,76 672,76 641,76 570,178 457,381 L 164,-76 C 142,-110 111,-127 72,-127 30,-127 9,-110 8,-76 1,-67 -2,-52 -2,-32 -2,-23 -1,-13 0,-2 Z"/>
  </g>
  <g id="bullet-char-template(10004)" transform="scale(0.00048828125,-0.00048828125)">
   <path d="M 285,-33 C 182,-33 111,30 74,156 52,228 41,333 41,471 41,549 55,616 82,672 116,743 169,778 240,778 293,778 328,747 346,684 L 369,508 C 377,444 397,411 428,410 L 1163,1116 C 1174,1127 1196,1133 1229,1133 1271,1133 1292,1118 1292,1087 L 1292,965 C 1292,929 1282,901 1262,881 L 442,47 C 390,-6 338,-33 285,-33 Z"/>
  </g>
  <g id="bullet-char-template(9679)" transform="scale(0.00048828125,-0.00048828125)">
   <path d="M 813,0 C 632,0 489,54 383,161 276,268 223,411 223,592 223,773 276,916 383,1023 489,1130 632,1184 813,1184 992,1184 1136,1130 1245,1023 1353,916 1407,772 1407,592 1407,412 1353,268 1245,161 1136,54 992,0 813,0 Z"/>
  </g>
  <g id="bullet-char-template(8226)" transform="scale(0.00048828125,-0.00048828125)">
   <path d="M 346,457 C 273,457 209,483 155,535 101,586 74,649 74,723 74,796 101,859 155,911 209,963 273,989 346,989 419,989 480,963 531,910 582,859 608,796 608,723 608,648 583,586 532,535 482,483 420,457 346,457 Z"/>
  </g>
  <g id="bullet-char-template(8211)" transform="scale(0.00048828125,-0.00048828125)">
   <path d="M -4,459 L 1135,459 1135,606 -4,606 -4,459 Z"/>
  </g>
 </defs>
 <defs class="TextEmbeddedBitmaps"/>
 <g class="SlideGroup">
  <g>
   <g id="id1" class="Slide" clip-path="url(#presentation_clip_path)">
    <g class="Page">
     <g class="com.sun.star.drawing.PolyPolygonShape">
      <g id="id3">
       <rect class="BoundingBox" stroke="none" fill="none" x="1635" y="1335" width="2114" height="1587"/>
       <path fill="rgb(179,179,179)" stroke="none" d="M 2691,2920 L 1635,2920 1635,1335 3748,1335 3748,2920 2691,2920 Z"/>
      </g>
     </g>
     <g class="com.sun.star.drawing.PolyPolygonShape">
      <g id="id4">
       <rect class="BoundingBox" stroke="none" fill="none" x="1609" y="1309" width="2166" height="1639"/>
       <path fill="none" stroke="rgb(0,0,0)" stroke-width="52" stroke-linejoin="miter" d="M 2691,2920 L 1635,2920 1635,1335 3748,1335 3748,2920 2691,2920 Z"/>
      </g>
     </g>
     <g class="com.sun.star.drawing.PolyPolygonShape">
      <g id="id5">
       <rect class="BoundingBox" stroke="none" fill="none" x="1863" y="1564" width="1656" height="1093"/>
       <path fill="rgb(255,192,203)" stroke="none" d="M 2691,2656 L 1863,2656 1863,1564 3518,1564 3518,2656 2691,2656 Z"/>
      </g>
     </g>
     <g class="com.sun.star.drawing.ClosedBezierShape">
      <g id="id6">
       <rect class="BoundingBox" stroke="none" fill="none" x="2214" y="1651" width="955" height="955"/>
       <path fill="none" stroke="rgb(0,0,0)" stroke-width="52" stroke-linejoin="miter" d="M 3142,2128 C 3142,2211 3123,2282 3082,2354 3040,2425 2988,2477 2917,2519 2845,2560 2774,2579 2691,2579 2608,2579 2537,2560 2466,2519 2394,2477 2342,2425 2300,2354 2259,2282 2240,2211 2240,2128 2240,2045 2259,1974 2300,1903 2342,1831 2394,1779 2466,1737 2537,1696 2608,1677 2691,1677 2774,1677 2845,1696 2917,1737 2988,1779 3040,1831 3082,1903 3123,1974 3142,2045 3142,2128 Z"/>
      </g>
     </g>
     <g class="com.sun.star.drawing.PolyPolygonShape">
      <g id="id7">
       <rect class="BoundingBox" stroke="none" fill="none" x="2623" y="1677" width="137" height="137"/>
       <path fill="rgb(0,0,0)" stroke="none" d="M 2691,1677 L 2623,1813 2759,1813 2691,1677 Z"/>
      </g>
     </g>
     <g class="com.sun.star.drawing.PolyPolygonShape">
      <g id="id8">
       <rect class="BoundingBox" stroke="none" fill="none" x="2623" y="2443" width="137" height="137"/>
       <path fill="rgb(0,0,0)" stroke="none" d="M 2691,2579 L 2623,2443 2759,2443 2691,2579 Z"/>
      </g>
     </g>
     <g class="com.sun.star.drawing.PolyPolygonShape">
      <g id="id9">
       <rect class="BoundingBox" stroke="none" fill="none" x="3006" y="2060" width="137" height="137"/>
       <path fill="rgb(0,0,0)" stroke="none" d="M 3142,2128 L 3006,2060 3006,2196 3142,2128 Z"/>
      </g>
     </g>
     <g class="com.sun.star.drawing.PolyPolygonShape">
      <g id="id10">
       <rect class="BoundingBox" stroke="none" fill="none" x="2555" y="2060" width="137" height="137"/>
       <path fill="rgb(0,0,0)" stroke="none" d="M 2691,2128 L 2555,2196 2555,2060 2691,2128 Z"/>
      </g>
     </g>
     <g class="com.sun.star.drawing.LineShape">
      <g id="id11">
       <rect class="BoundingBox" stroke="none" fill="none" x="2240" y="2101" width="902" height="53"/>
       <path fill="none" stroke="rgb(0,0,0)" stroke-width="52" stroke-linejoin="miter" d="M 2240,2127 L 3141,2127"/>
      </g>
     </g>
     <g class="com.sun.star.drawing.LineShape">
      <g id="id12">
       <rect class="BoundingBox" stroke="none" fill="none" x="2665" y="1677" width="53" height="902"/>
       <path fill="none" stroke="rgb(0,0,0)" stroke-width="52" stroke-linejoin="miter" d="M 2691,1677 L 2691,2578"/>
      </g>
     </g>
     <g class="com.sun.star.drawing.PolyPolygonShape">
      <g id="id13">
       <rect class="BoundingBox" stroke="none" fill="none" x="1921" y="2919" width="1089" height="248"/>
       <path fill="rgb(179,179,179)" stroke="none" d="M 1921,2919 L 3009,2919 3009,3166 1978,3166 1921,2919 Z"/>
      </g>
     </g>
     <g class="com.sun.star.drawing.PolyPolygonShape">
      <g id="id14">
       <rect class="BoundingBox" stroke="none" fill="none" x="1888" y="2893" width="1148" height="300"/>
       <path fill="none" stroke="rgb(0,0,0)" stroke-width="52" stroke-linejoin="miter" d="M 1921,2919 L 3009,2919 3009,3166 1978,3166 1921,2919 Z"/>
      </g>
     </g>
     <g class="com.sun.star.drawing.PolyPolygonShape">
      <g id="id15">
       <rect class="BoundingBox" stroke="none" fill="none" x="3007" y="2919" width="455" height="248"/>
       <path fill="rgb(179,179,179)" stroke="none" d="M 3007,2919 L 3461,2919 3404,3166 3007,3166 3007,2919 Z"/>
      </g>
     </g>
     <g class="com.sun.star.drawing.PolyPolygonShape">
      <g id="id16">
       <rect class="BoundingBox" stroke="none" fill="none" x="2981" y="2893" width="514" height="300"/>
       <path fill="none" stroke="rgb(0,0,0)" stroke-width="52" stroke-linejoin="miter" d="M 3007,2919 L 3461,2919 3404,3166 3007,3166 3007,2919 Z"/>
      </g>
     </g>
     <g class="com.sun.star.drawing.PolyPolygonShape">
      <g id="id17">
       <rect class="BoundingBox" stroke="none" fill="none" x="3081" y="2993" width="102" height="101"/>
       <path fill="rgb(255,192,203)" stroke="none" d="M 3131,3093 L 3081,3093 3081,2993 3181,2993 3181,3093 3131,3093 Z"/>
      </g>
     </g>
     <g class="com.sun.star.drawing.PolyPolygonShape">
      <g id="id18">
       <rect class="BoundingBox" stroke="none" fill="none" x="3068" y="2980" width="128" height="127"/>
       <path fill="none" stroke="rgb(0,0,0)" stroke-width="26" stroke-linejoin="miter" d="M 3131,3093 L 3081,3093 3081,2993 3181,2993 3181,3093 3131,3093 Z"/>
      </g>
     </g>
     <g class="com.sun.star.drawing.PolyPolygonShape">
      <g id="id19">
       <rect class="BoundingBox" stroke="none" fill="none" x="2267" y="3166" width="848" height="248"/>
       <path fill="rgb(179,179,179)" stroke="none" d="M 2479,3166 L 2902,3166 2902,3290 3114,3290 3114,3413 2268,3413 2268,3290 2479,3290 2479,3166 Z"/>
      </g>
     </g>
     <g class="com.sun.star.drawing.PolyPolygonShape">
      <g id="id20">
       <rect class="BoundingBox" stroke="none" fill="none" x="2241" y="3140" width="900" height="300"/>
       <path fill="none" stroke="rgb(0,0,0)" stroke-width="52" stroke-linejoin="miter" d="M 2479,3166 L 2902,3166 2902,3290 3114,3290 3114,3413 2268,3413 2268,3290 2479,3290 2479,3166 Z"/>
      </g>
     </g>
    </g>
   </g>
  </g>
 </g>
</svg>