<?xml version="1.0" encoding="UTF-8"?>
<!DOCTYPE svg PUBLIC "-//W3C//DTD SVG 1.1//EN" "http://www.w3.org/Graphics/SVG/1.1/DTD/svg11.dtd">
<svg version="1.2" width="21.3mm" height="21.3mm" viewBox="10463 6516 2130 2130" preserveAspectRatio="xMidYMid" fill-rule="evenodd" stroke-width="28.222" stroke-linejoin="round" xmlns="http://www.w3.org/2000/svg" xmlns:ooo="http://xml.openoffice.org/svg/export" xmlns:xlink="http://www.w3.org/1999/xlink" xmlns:presentation="http://sun.com/xmlns/staroffice/presentation" xmlns:smil="http://www.w3.org/2001/SMIL20/" xmlns:anim="urn:oasis:names:tc:opendocument:xmlns:animation:1.0" xml:space="preserve">
 <defs class="ClipPathGroup">
  <clipPath id="presentation_clip_path" clipPathUnits="userSpaceOnUse">
   <rect x="10463" y="6516" width="2130" height="2130"/>
  </clipPath>
 </defs>
 <defs class="TextShapeIndex">
  <g ooo:slide="id1" ooo:id-list="id3 id4 id5 id6 id7 id8 id9 id10 id11"/>
 </defs>
 <defs class="EmbeddedBulletChars">
  <g id="bullet-char-template(57356)" transform="scale(0.00048828125,-0.00048828125)">
   <path d="M 580,1141 L 1163,571 580,0 -4,571 580,1141 Z"/>
  </g>
  <g id="bullet-char-template(57354)" transform="scale(0.00048828125,-0.00048828125)">
   <path d="M 8,1128 L 1137,1128 1137,0 8,0 8,1128 Z"/>
  </g>
  <g id="bullet-char-template(10146)" transform="scale(0.00048828125,-0.00048828125)">
   <path d="M 174,0 L 602,739 174,1481 1456,739 174,0 Z M 1358,739 L 309,1346 659,739 1358,739 Z"/>
  </g>
  <g id="bullet-char-template(10132)" transform="scale(0.00048828125,-0.00048828125)">
   <path d="M 2015,739 L 1276,0 717,0 1260,543 174,543 174,936 1260,936 717,1481 1274,1481 2015,739 Z"/>
  </g>
  <g id="bullet-char-template(10007)" transform="scale(0.00048828125,-0.00048828125)">
   <path d="M 0,-2 C -7,14 -16,27 -25,37 L 356,567 C 262,823 215,952 215,954 215,979 228,992 255,992 264,992 276,990 289,987 310,991 331,999 354,1012 L 381,999 492,748 772,1049 836,1024 860,1049 C 881,1039 901,1025 922,1006 886,937 835,863 770,784 769,783 710,716 594,584 L 774,223 C 774,196 753,168 711,139 L 727,119 C 717,90 699,76 672,76 641,76 570,178 457,381 L 164,-76 C 142,-110 111,-127 72,-127 30,-127 9,-110 8,-76 1,-67 -2,-52 -2,-32 -2,-23 -1,-13 0,-2 Z"/>
  </g>
  <g id="bullet-char-template(10004)" transform="scale(0.00048828125,-0.00048828125)">
   <path d="M 285,-33 C 182,-33 111,30 74,156 52,228 41,333 41,471 41,549 55,616 82,672 116,743 169,778 240,778 293,778 328,747 346,684 L 369,508 C 377,444 397,411 428,410 L 1163,1116 C 1174,1127 1196,1133 1229,1133 1271,1133 1292,1118 1292,1087 L 1292,965 C 1292,929 1282,901 1262,881 L 442,47 C 390,-6 338,-33 285,-33 Z"/>
  </g>
  <g id="bullet-char-template(9679)" transform="scale(0.00048828125,-0.00048828125)">
   <path d="M 813,0 C 632,0 489,54 383,161 276,268 223,411 223,592 223,773 276,916 383,1023 489,1130 632,1184 813,1184 992,1184 1136,1130 1245,1023 1353,916 1407,772 1407,592 1407,412 1353,268 1245,161 1136,54 992,0 813,0 Z"/>
  </g>
  <g id="bullet-char-template(8226)" transform="scale(0.00048828125,-0.00048828125)">
   <path d="M 346,457 C 273,457 209,483 155,535 101,586 74,649 74,723 74,796 101,859 155,911 209,963 273,989 346,989 419,989 480,963 531,910 582,859 608,796 608,723 608,648 583,586 532,535 482,483 420,457 346,457 Z"/>
  </g>
  <g id="bullet-char-template(8211)" transform="scale(0.00048828125,-0.00048828125)">
   <path d="M -4,459 L 1135,459 1135,606 -4,606 -4,459 Z"/>
  </g>
 </defs>
 <defs class="TextEmbeddedBitmaps"/>
 <g class="SlideGroup">
  <g>
   <g id="id1" class="Slide" clip-path="url(#presentation_clip_path)">
    <g class="Page">
     <g class="com.sun.star.drawing.ClosedBezierShape">
      <g id="id3">
       <rect class="BoundingBox" stroke="none" fill="none" x="10489" y="6542" width="2080" height="2079"/>
       <path fill="rgb(255,165,0)" stroke="none" d="M 12567,7581 C 12567,7772 12523,7935 12428,8100 12332,8266 12213,8385 12047,8481 11882,8576 11719,8620 11528,8620 11337,8620 11174,8576 11008,8481 10843,8385 10724,8266 10628,8100 10533,7935 10489,7772 10489,7581 10489,7390 10533,7227 10628,7061 10724,6896 10843,6777 11008,6681 11174,6586 11337,6542 11528,6542 11719,6542 11882,6586 12047,6681 12213,6777 12332,6896 12428,7061 12523,7227 12567,7390 12567,7581 Z"/>
      </g>
     </g>
     <g class="com.sun.star.drawing.ClosedBezierShape">
      <g id="id4">
       <rect class="BoundingBox" stroke="none" fill="none" x="10463" y="6516" width="2132" height="2131"/>
       <path fill="none" stroke="rgb(0,0,0)" stroke-width="52" stroke-linejoin="miter" d="M 12567,7581 C 12567,7772 12523,7935 12428,8100 12332,8266 12213,8385 12047,8481 11882,8576 11719,8620 11528,8620 11337,8620 11174,8576 11008,8481 10843,8385 10724,8266 10628,8100 10533,7935 10489,7772 10489,7581 10489,7390 10533,7227 10628,7061 10724,6896 10843,6777 11008,6681 11174,6586 11337,6542 11528,6542 11719,6542 11882,6586 12047,6681 12213,6777 12332,6896 12428,7061 12523,7227 12567,7390 12567,7581 Z"/>
      </g>
     </g>
     <g class="com.sun.star.drawing.LineShape">
      <g id="id5">
       <rect class="BoundingBox" stroke="none" fill="none" x="11501" y="6542" width="53" height="2078"/>
       <path fill="none" stroke="rgb(0,0,0)" stroke-width="52" stroke-linejoin="miter" d="M 11527,6542 L 11527,8619"/>
      </g>
     </g>
     <g class="com.sun.star.drawing.LineShape">
      <g id="id6">
       <rect class="BoundingBox" stroke="none" fill="none" x="10489" y="7554" width="2078" height="53"/>
       <path fill="none" stroke="rgb(0,0,0)" stroke-width="52" stroke-linejoin="miter" d="M 10489,7580 L 12566,7580"/>
      </g>
     </g>
     <g class="com.sun.star.drawing.PolyPolygonShape">
      <g id="id7">
       <rect class="BoundingBox" stroke="none" fill="none" x="11371" y="6542" width="314" height="314"/>
       <path fill="rgb(0,0,0)" stroke="none" d="M 11527,6542 L 11371,6855 11684,6855 11527,6542 Z"/>
      </g>
     </g>
     <g class="com.sun.star.drawing.PolyPolygonShape">
      <g id="id8">
       <rect class="BoundingBox" stroke="none" fill="none" x="11371" y="8307" width="314" height="314"/>
       <path fill="rgb(0,0,0)" stroke="none" d="M 11527,8620 L 11371,8307 11684,8307 11527,8620 Z"/>
      </g>
     </g>
     <g class="com.sun.star.drawing.PolyPolygonShape">
      <g id="id9">
       <rect class="BoundingBox" stroke="none" fill="none" x="12254" y="7424" width="314" height="314"/>
       <path fill="rgb(0,0,0)" stroke="none" d="M 12567,7580 L 12254,7424 12254,7737 12567,7580 Z"/>
      </g>
     </g>
     <g class="com.sun.star.drawing.PolyPolygonShape">
      <g id="id10">
       <rect class="BoundingBox" stroke="none" fill="none" x="11215" y="7424" width="314" height="314"/>
       <path fill="rgb(0,0,0)" stroke="none" d="M 11528,7580 L 11215,7424 11215,7737 11528,7580 Z"/>
      </g>
     </g>
     <g class="com.sun.star.drawing.ClosedBezierShape">
      <g id="id11">
       <rect class="BoundingBox" stroke="none" fill="none" x="11008" y="7061" width="1040" height="1040"/>
      </g>
     </g>
    </g>
   </g>
  </g>
 </g>
</svg>